What is Hi10P ?

Hi10P is the advanced version of the normal x264. This gives more quality for the same size. 
You have the ability to watch Ultra Quality movies with the new Hi10P encodes.

Hi10P needs Updated, Advanced video players. 

i recommend VLC or Media Player Classic because it's pretty easy.
But, you can select any of your choice.(if problem to play then intsall k-lite codecs pack)

 
http://en.wikipedia.org/wiki/Ek_Tha_Tiger
 
http://www.imdb.com/title/tt2016894/


Format                                   : Matroska
Format version                           : Version 2
File size                                : 2.28 GiB
Duration                                 : 2h 13mn
Overall bit rate                         : 2 449 Kbps


Video
ID                                       : 1
Format                                   : AVC
Format/Info                              : Advanced Video Codec
Format profile                           : High 10@L4.1
Format settings, CABAC                   : Yes
Format settings, ReFrames                : 4 frames
Muxing mode                              : Header stripping
Codec ID                                 : V_MPEG4/ISO/AVC
Duration                                 : 2h 13mn
Bit rate                                 : 2 000 Kbps
Width                                    : 1 280 pixels
Height                                   : 544 pixels
Display aspect ratio                     : 2.35:1
Original display aspect ratio            : 2.35:1
Frame rate                               : 23.976 fps
Color space                              : YUV
Chroma subsampling                       : 4:2:0
Bit depth                                : 10 bits
Scan type                                : Progressive
Bits/(Pixel*Frame)                       : 0.120
Stream size                              : 1.82 GiB (80%)


Audio
ID                                       : 2
Format                                   : AC-3
Bit rate mode                            : Constant
Bit rate                                 : 448 Kbps
Channel(s)                               : 6 channels
Channel positions                        : Front: L C R, Side: L R, LFE
Sampling rate                            : 48.0 KHz
Bit depth                                : 16 bits
Compression mode                         : Lossy
Stream size                              : 427 MiB (18%)
Language                                 : Hindi

 
http://www.shotpix.com/images/09449044733728552421.png
 
http://www.shotpix.com/images/88206679714532288082.png
 
http://www.shotpix.com/images/89529783046715165633.png
 
http://www.shotpix.com/images/90365292403520212929.png
 
http://www.shotpix.com/images/91422913713759893350.png
 
http://www.shotpix.com/images/34607903053479150616.png
 
http://www.shotpix.com/images/80708321622650907792.png
 
http://www.shotpix.com/images/98506914834832384397.png
 
http://www.shotpix.com/images/83064856895099637564.png
 
http://www.shotpix.com/images/47469959479793051730.png


                                  Check The Sample First
